0
SECTION
2
HEADER
9
$INSUNITS
70
4
0
ENDSEC
0
SECTION
2
TABLES
0
TABLE
2
LTYPE
0
LTYPE
72
65
70
64
2
CONTINUOUS
3
______
73
0
40
0
0
ENDTAB
0
TABLE
2
LAYER
0
ENDTAB
0
ENDSEC
0
SECTION
2
ENTITIES
0
LINE
8
front_outsideCutPath
10
11.0975
20
8
11
21.5625
21
8
0
LINE
8
front_outsideCutPath
10
21.5625
20
8
11
21.5625
21
3
0
LINE
8
front_outsideCutPath
10
21.5625
20
3
11
32.3475
21
3
0
LINE
8
front_outsideCutPath
10
32.3475
20
3
11
32.3475
21
8
0
LINE
8
front_outsideCutPath
10
32.3475
20
8
11
42.8125
21
8
0
LINE
8
front_outsideCutPath
10
42.8125
20
8
11
42.8125
21
3
0
LINE
8
front_outsideCutPath
10
42.8125
20
3
11
53.5975
21
3
0
LINE
8
front_outsideCutPath
10
53.5975
20
3
11
53.5975
21
8
0
LINE
8
front_outsideCutPath
10
53.5975
20
8
11
64.0625
21
8
0
LINE
8
front_outsideCutPath
10
64.0625
20
8
11
64.0625
21
3
0
LINE
8
front_outsideCutPath
10
64.0625
20
3
11
74.8475
21
3
0
LINE
8
front_outsideCutPath
10
74.8475
20
3
11
74.8475
21
8
0
LINE
8
front_outsideCutPath
10
74.8475
20
8
11
85.3125
21
8
0
LINE
8
front_outsideCutPath
10
85.3125
20
8
11
85.3125
21
3
0
LINE
8
front_outsideCutPath
10
85.3125
20
3
11
96.0975
21
3
0
LINE
8
front_outsideCutPath
10
96.0975
20
3
11
96.0975
21
8
0
LINE
8
front_outsideCutPath
10
96.0975
20
8
11
106.5625
21
8
0
LINE
8
front_outsideCutPath
10
106.5625
20
8
11
106.5625
21
3
0
LINE
8
front_outsideCutPath
10
106.5625
20
3
11
117.3475
21
3
0
LINE
8
front_outsideCutPath
10
117.3475
20
3
11
117.3475
21
8
0
LINE
8
front_outsideCutPath
10
117.3475
20
8
11
127.8125
21
8
0
LINE
8
front_outsideCutPath
10
127.8125
20
8
11
127.8125
21
3
0
LINE
8
front_outsideCutPath
10
127.8125
20
3
11
138.5975
21
3
0
LINE
8
front_outsideCutPath
10
138.5975
20
3
11
138.5975
21
8
0
LINE
8
front_outsideCutPath
10
138.5975
20
8
11
149.0625
21
8
0
LINE
8
front_outsideCutPath
10
149.0625
20
8
11
149.0625
21
3
0
LINE
8
front_outsideCutPath
10
149.0625
20
3
11
160.16
21
3
0
LINE
8
front_outsideCutPath
10
160.16
20
3
11
160.16
21
12.2225
0
LINE
8
front_outsideCutPath
10
160.16
20
12.2225
11
155.16
21
12.2225
0
LINE
8
front_outsideCutPath
10
155.16
20
12.2225
11
155.16
21
22.6875
0
LINE
8
front_outsideCutPath
10
155.16
20
22.6875
11
160.16
21
22.6875
0
LINE
8
front_outsideCutPath
10
160.16
20
22.6875
11
160.16
21
33.4725
0
LINE
8
front_outsideCutPath
10
160.16
20
33.4725
11
155.16
21
33.4725
0
LINE
8
front_outsideCutPath
10
155.16
20
33.4725
11
155.16
21
43.9375
0
LINE
8
front_outsideCutPath
10
155.16
20
43.9375
11
160.16
21
43.9375
0
LINE
8
front_outsideCutPath
10
160.16
20
43.9375
11
160.16
21
53.16
0
LINE
8
front_outsideCutPath
10
160.16
20
53.16
11
0
21
53.16
0
LINE
8
front_outsideCutPath
10
0
20
53.16
11
0
21
43.9375
0
LINE
8
front_outsideCutPath
10
0
20
43.9375
11
5
21
43.9375
0
LINE
8
front_outsideCutPath
10
5
20
43.9375
11
5
21
33.4725
0
LINE
8
front_outsideCutPath
10
5
20
33.4725
11
0
21
33.4725
0
LINE
8
front_outsideCutPath
10
0
20
33.4725
11
0
21
22.6875
0
LINE
8
front_outsideCutPath
10
0
20
22.6875
11
5
21
22.6875
0
LINE
8
front_outsideCutPath
10
5
20
22.6875
11
5
21
12.2225
0
LINE
8
front_outsideCutPath
10
5
20
12.2225
11
0
21
12.2225
0
LINE
8
front_outsideCutPath
10
0
20
12.2225
11
0
21
3
0
LINE
8
front_outsideCutPath
10
0
20
3
11
11.0975
21
3
0
LINE
8
front_outsideCutPath
10
11.0975
20
3
11
11.0975
21
8
0
LINE
8
left_outsideCutPath
10
176.7575
20
8
11
187.2225
21
8
0
LINE
8
left_outsideCutPath
10
187.2225
20
8
11
187.2225
21
3
0
LINE
8
left_outsideCutPath
10
187.2225
20
3
11
198.0075
21
3
0
LINE
8
left_outsideCutPath
10
198.0075
20
3
11
198.0075
21
8
0
LINE
8
left_outsideCutPath
10
198.0075
20
8
11
208.4725
21
8
0
LINE
8
left_outsideCutPath
10
208.4725
20
8
11
208.4725
21
3
0
LINE
8
left_outsideCutPath
10
208.4725
20
3
11
219.2575
21
3
0
LINE
8
left_outsideCutPath
10
219.2575
20
3
11
219.2575
21
8
0
LINE
8
left_outsideCutPath
10
219.2575
20
8
11
229.7225
21
8
0
LINE
8
left_outsideCutPath
10
229.7225
20
8
11
229.7225
21
3
0
LINE
8
left_outsideCutPath
10
229.7225
20
3
11
238.32
21
3
0
LINE
8
left_outsideCutPath
10
238.32
20
3
11
238.32
21
12.0625
0
LINE
8
left_outsideCutPath
10
238.32
20
12.0625
11
243.32
21
12.0625
0
LINE
8
left_outsideCutPath
10
243.32
20
12.0625
11
243.32
21
22.8475
0
LINE
8
left_outsideCutPath
10
243.32
20
22.8475
11
238.32
21
22.8475
0
LINE
8
left_outsideCutPath
10
238.32
20
22.8475
11
238.32
21
33.3125
0
LINE
8
left_outsideCutPath
10
238.32
20
33.3125
11
243.32
21
33.3125
0
LINE
8
left_outsideCutPath
10
243.32
20
33.3125
11
243.32
21
44.0975
0
LINE
8
left_outsideCutPath
10
243.32
20
44.0975
11
238.32
21
44.0975
0
LINE
8
left_outsideCutPath
10
238.32
20
44.0975
11
238.32
21
53.16
0
LINE
8
left_outsideCutPath
10
238.32
20
53.16
11
168.16
21
53.16
0
LINE
8
left_outsideCutPath
10
168.16
20
53.16
11
168.16
21
44.0975
0
LINE
8
left_outsideCutPath
10
168.16
20
44.0975
11
163.16
21
44.0975
0
LINE
8
left_outsideCutPath
10
163.16
20
44.0975
11
163.16
21
33.3125
0
LINE
8
left_outsideCutPath
10
163.16
20
33.3125
11
168.16
21
33.3125
0
LINE
8
left_outsideCutPath
10
168.16
20
33.3125
11
168.16
21
22.8475
0
LINE
8
left_outsideCutPath
10
168.16
20
22.8475
11
163.16
21
22.8475
0
LINE
8
left_outsideCutPath
10
163.16
20
22.8475
11
163.16
21
12.0625
0
LINE
8
left_outsideCutPath
10
163.16
20
12.0625
11
168.16
21
12.0625
0
LINE
8
left_outsideCutPath
10
168.16
20
12.0625
11
168.16
21
3
0
LINE
8
left_outsideCutPath
10
168.16
20
3
11
176.7575
21
3
0
LINE
8
left_outsideCutPath
10
176.7575
20
3
11
176.7575
21
8
0
LINE
8
back_outsideCutPath
10
11.0975
20
61.16
11
21.5625
21
61.16
0
LINE
8
back_outsideCutPath
10
21.5625
20
61.16
11
21.5625
21
56.16
0
LINE
8
back_outsideCutPath
10
21.5625
20
56.16
11
32.3475
21
56.16
0
LINE
8
back_outsideCutPath
10
32.3475
20
56.16
11
32.3475
21
61.16
0
LINE
8
back_outsideCutPath
10
32.3475
20
61.16
11
42.8125
21
61.16
0
LINE
8
back_outsideCutPath
10
42.8125
20
61.16
11
42.8125
21
56.16
0
LINE
8
back_outsideCutPath
10
42.8125
20
56.16
11
53.5975
21
56.16
0
LINE
8
back_outsideCutPath
10
53.5975
20
56.16
11
53.5975
21
61.16
0
LINE
8
back_outsideCutPath
10
53.5975
20
61.16
11
64.0625
21
61.16
0
LINE
8
back_outsideCutPath
10
64.0625
20
61.16
11
64.0625
21
56.16
0
LINE
8
back_outsideCutPath
10
64.0625
20
56.16
11
74.8475
21
56.16
0
LINE
8
back_outsideCutPath
10
74.8475
20
56.16
11
74.8475
21
61.16
0
LINE
8
back_outsideCutPath
10
74.8475
20
61.16
11
85.3125
21
61.16
0
LINE
8
back_outsideCutPath
10
85.3125
20
61.16
11
85.3125
21
56.16
0
LINE
8
back_outsideCutPath
10
85.3125
20
56.16
11
96.0975
21
56.16
0
LINE
8
back_outsideCutPath
10
96.0975
20
56.16
11
96.0975
21
61.16
0
LINE
8
back_outsideCutPath
10
96.0975
20
61.16
11
106.5625
21
61.16
0
LINE
8
back_outsideCutPath
10
106.5625
20
61.16
11
106.5625
21
56.16
0
LINE
8
back_outsideCutPath
10
106.5625
20
56.16
11
117.3475
21
56.16
0
LINE
8
back_outsideCutPath
10
117.3475
20
56.16
11
117.3475
21
61.16
0
LINE
8
back_outsideCutPath
10
117.3475
20
61.16
11
127.8125
21
61.16
0
LINE
8
back_outsideCutPath
10
127.8125
20
61.16
11
127.8125
21
56.16
0
LINE
8
back_outsideCutPath
10
127.8125
20
56.16
11
138.5975
21
56.16
0
LINE
8
back_outsideCutPath
10
138.5975
20
56.16
11
138.5975
21
61.16
0
LINE
8
back_outsideCutPath
10
138.5975
20
61.16
11
149.0625
21
61.16
0
LINE
8
back_outsideCutPath
10
149.0625
20
61.16
11
149.0625
21
56.16
0
LINE
8
back_outsideCutPath
10
149.0625
20
56.16
11
160.16
21
56.16
0
LINE
8
back_outsideCutPath
10
160.16
20
56.16
11
160.16
21
65.3825
0
LINE
8
back_outsideCutPath
10
160.16
20
65.3825
11
155.16
21
65.3825
0
LINE
8
back_outsideCutPath
10
155.16
20
65.3825
11
155.16
21
75.8475
0
LINE
8
back_outsideCutPath
10
155.16
20
75.8475
11
160.16
21
75.8475
0
LINE
8
back_outsideCutPath
10
160.16
20
75.8475
11
160.16
21
86.6325
0
LINE
8
back_outsideCutPath
10
160.16
20
86.6325
11
155.16
21
86.6325
0
LINE
8
back_outsideCutPath
10
155.16
20
86.6325
11
155.16
21
97.0975
0
LINE
8
back_outsideCutPath
10
155.16
20
97.0975
11
160.16
21
97.0975
0
LINE
8
back_outsideCutPath
10
160.16
20
97.0975
11
160.16
21
106.32
0
LINE
8
back_outsideCutPath
10
160.16
20
106.32
11
0
21
106.32
0
LINE
8
back_outsideCutPath
10
0
20
106.32
11
0
21
97.0975
0
LINE
8
back_outsideCutPath
10
0
20
97.0975
11
5
21
97.0975
0
LINE
8
back_outsideCutPath
10
5
20
97.0975
11
5
21
86.6325
0
LINE
8
back_outsideCutPath
10
5
20
86.6325
11
0
21
86.6325
0
LINE
8
back_outsideCutPath
10
0
20
86.6325
11
0
21
75.8475
0
LINE
8
back_outsideCutPath
10
0
20
75.8475
11
5
21
75.8475
0
LINE
8
back_outsideCutPath
10
5
20
75.8475
11
5
21
65.3825
0
LINE
8
back_outsideCutPath
10
5
20
65.3825
11
0
21
65.3825
0
LINE
8
back_outsideCutPath
10
0
20
65.3825
11
0
21
56.16
0
LINE
8
back_outsideCutPath
10
0
20
56.16
11
11.0975
21
56.16
0
LINE
8
back_outsideCutPath
10
11.0975
20
56.16
11
11.0975
21
61.16
0
LINE
8
right_outsideCutPath
10
176.7575
20
61.16
11
187.2225
21
61.16
0
LINE
8
right_outsideCutPath
10
187.2225
20
61.16
11
187.2225
21
56.16
0
LINE
8
right_outsideCutPath
10
187.2225
20
56.16
11
198.0075
21
56.16
0
LINE
8
right_outsideCutPath
10
198.0075
20
56.16
11
198.0075
21
61.16
0
LINE
8
right_outsideCutPath
10
198.0075
20
61.16
11
208.4725
21
61.16
0
LINE
8
right_outsideCutPath
10
208.4725
20
61.16
11
208.4725
21
56.16
0
LINE
8
right_outsideCutPath
10
208.4725
20
56.16
11
219.2575
21
56.16
0
LINE
8
right_outsideCutPath
10
219.2575
20
56.16
11
219.2575
21
61.16
0
LINE
8
right_outsideCutPath
10
219.2575
20
61.16
11
229.7225
21
61.16
0
LINE
8
right_outsideCutPath
10
229.7225
20
61.16
11
229.7225
21
56.16
0
LINE
8
right_outsideCutPath
10
229.7225
20
56.16
11
238.32
21
56.16
0
LINE
8
right_outsideCutPath
10
238.32
20
56.16
11
238.32
21
65.2225
0
LINE
8
right_outsideCutPath
10
238.32
20
65.2225
11
243.32
21
65.2225
0
LINE
8
right_outsideCutPath
10
243.32
20
65.2225
11
243.32
21
76.0075
0
LINE
8
right_outsideCutPath
10
243.32
20
76.0075
11
238.32
21
76.0075
0
LINE
8
right_outsideCutPath
10
238.32
20
76.0075
11
238.32
21
86.4725
0
LINE
8
right_outsideCutPath
10
238.32
20
86.4725
11
243.32
21
86.4725
0
LINE
8
right_outsideCutPath
10
243.32
20
86.4725
11
243.32
21
97.2575
0
LINE
8
right_outsideCutPath
10
243.32
20
97.2575
11
238.32
21
97.2575
0
LINE
8
right_outsideCutPath
10
238.32
20
97.2575
11
238.32
21
106.32
0
LINE
8
right_outsideCutPath
10
238.32
20
106.32
11
168.16
21
106.32
0
LINE
8
right_outsideCutPath
10
168.16
20
106.32
11
168.16
21
97.2575
0
LINE
8
right_outsideCutPath
10
168.16
20
97.2575
11
163.16
21
97.2575
0
LINE
8
right_outsideCutPath
10
163.16
20
97.2575
11
163.16
21
86.4725
0
LINE
8
right_outsideCutPath
10
163.16
20
86.4725
11
168.16
21
86.4725
0
LINE
8
right_outsideCutPath
10
168.16
20
86.4725
11
168.16
21
76.0075
0
LINE
8
right_outsideCutPath
10
168.16
20
76.0075
11
163.16
21
76.0075
0
LINE
8
right_outsideCutPath
10
163.16
20
76.0075
11
163.16
21
65.2225
0
LINE
8
right_outsideCutPath
10
163.16
20
65.2225
11
168.16
21
65.2225
0
LINE
8
right_outsideCutPath
10
168.16
20
65.2225
11
168.16
21
56.16
0
LINE
8
right_outsideCutPath
10
168.16
20
56.16
11
176.7575
21
56.16
0
LINE
8
right_outsideCutPath
10
176.7575
20
56.16
11
176.7575
21
61.16
0
LINE
8
bottom_outsideCutPath
10
268.0425
20
8
11
278.5075
21
8
0
LINE
8
bottom_outsideCutPath
10
278.5075
20
8
11
278.5075
21
3
0
LINE
8
bottom_outsideCutPath
10
278.5075
20
3
11
289.2925
21
3
0
LINE
8
bottom_outsideCutPath
10
289.2925
20
3
11
289.2925
21
8
0
LINE
8
bottom_outsideCutPath
10
289.2925
20
8
11
299.7575
21
8
0
LINE
8
bottom_outsideCutPath
10
299.7575
20
8
11
299.7575
21
3
0
LINE
8
bottom_outsideCutPath
10
299.7575
20
3
11
310.5425
21
3
0
LINE
8
bottom_outsideCutPath
10
310.5425
20
3
11
310.5425
21
8
0
LINE
8
bottom_outsideCutPath
10
310.5425
20
8
11
321.0075
21
8
0
LINE
8
bottom_outsideCutPath
10
321.0075
20
8
11
321.0075
21
3
0
LINE
8
bottom_outsideCutPath
10
321.0075
20
3
11
331.7925
21
3
0
LINE
8
bottom_outsideCutPath
10
331.7925
20
3
11
331.7925
21
8
0
LINE
8
bottom_outsideCutPath
10
331.7925
20
8
11
342.2575
21
8
0
LINE
8
bottom_outsideCutPath
10
342.2575
20
8
11
342.2575
21
3
0
LINE
8
bottom_outsideCutPath
10
342.2575
20
3
11
353.0425
21
3
0
LINE
8
bottom_outsideCutPath
10
353.0425
20
3
11
353.0425
21
8
0
LINE
8
bottom_outsideCutPath
10
353.0425
20
8
11
363.5075
21
8
0
LINE
8
bottom_outsideCutPath
10
363.5075
20
8
11
363.5075
21
3
0
LINE
8
bottom_outsideCutPath
10
363.5075
20
3
11
374.2925
21
3
0
LINE
8
bottom_outsideCutPath
10
374.2925
20
3
11
374.2925
21
8
0
LINE
8
bottom_outsideCutPath
10
374.2925
20
8
11
384.7575
21
8
0
LINE
8
bottom_outsideCutPath
10
384.7575
20
8
11
384.7575
21
3
0
LINE
8
bottom_outsideCutPath
10
384.7575
20
3
11
395.5425
21
3
0
LINE
8
bottom_outsideCutPath
10
395.5425
20
3
11
395.5425
21
8
0
LINE
8
bottom_outsideCutPath
10
395.5425
20
8
11
401.48
21
8
0
LINE
8
bottom_outsideCutPath
10
401.48
20
8
11
401.48
21
16.4375
0
LINE
8
bottom_outsideCutPath
10
401.48
20
16.4375
11
406.48
21
16.4375
0
LINE
8
bottom_outsideCutPath
10
406.48
20
16.4375
11
406.48
21
27.2225
0
LINE
8
bottom_outsideCutPath
10
406.48
20
27.2225
11
401.48
21
27.2225
0
LINE
8
bottom_outsideCutPath
10
401.48
20
27.2225
11
401.48
21
37.6875
0
LINE
8
bottom_outsideCutPath
10
401.48
20
37.6875
11
406.48
21
37.6875
0
LINE
8
bottom_outsideCutPath
10
406.48
20
37.6875
11
406.48
21
48.4725
0
LINE
8
bottom_outsideCutPath
10
406.48
20
48.4725
11
401.48
21
48.4725
0
LINE
8
bottom_outsideCutPath
10
401.48
20
48.4725
11
401.48
21
58.9375
0
LINE
8
bottom_outsideCutPath
10
401.48
20
58.9375
11
406.48
21
58.9375
0
LINE
8
bottom_outsideCutPath
10
406.48
20
58.9375
11
406.48
21
69.7225
0
LINE
8
bottom_outsideCutPath
10
406.48
20
69.7225
11
401.48
21
69.7225
0
LINE
8
bottom_outsideCutPath
10
401.48
20
69.7225
11
401.48
21
78.16
0
LINE
8
bottom_outsideCutPath
10
401.48
20
78.16
11
395.5425
21
78.16
0
LINE
8
bottom_outsideCutPath
10
395.5425
20
78.16
11
395.5425
21
83.16
0
LINE
8
bottom_outsideCutPath
10
395.5425
20
83.16
11
384.7575
21
83.16
0
LINE
8
bottom_outsideCutPath
10
384.7575
20
83.16
11
384.7575
21
78.16
0
LINE
8
bottom_outsideCutPath
10
384.7575
20
78.16
11
374.2925
21
78.16
0
LINE
8
bottom_outsideCutPath
10
374.2925
20
78.16
11
374.2925
21
83.16
0
LINE
8
bottom_outsideCutPath
10
374.2925
20
83.16
11
363.5075
21
83.16
0
LINE
8
bottom_outsideCutPath
10
363.5075
20
83.16
11
363.5075
21
78.16
0
LINE
8
bottom_outsideCutPath
10
363.5075
20
78.16
11
353.0425
21
78.16
0
LINE
8
bottom_outsideCutPath
10
353.0425
20
78.16
11
353.0425
21
83.16
0
LINE
8
bottom_outsideCutPath
10
353.0425
20
83.16
11
342.2575
21
83.16
0
LINE
8
bottom_outsideCutPath
10
342.2575
20
83.16
11
342.2575
21
78.16
0
LINE
8
bottom_outsideCutPath
10
342.2575
20
78.16
11
331.7925
21
78.16
0
LINE
8
bottom_outsideCutPath
10
331.7925
20
78.16
11
331.7925
21
83.16
0
LINE
8
bottom_outsideCutPath
10
331.7925
20
83.16
11
321.0075
21
83.16
0
LINE
8
bottom_outsideCutPath
10
321.0075
20
83.16
11
321.0075
21
78.16
0
LINE
8
bottom_outsideCutPath
10
321.0075
20
78.16
11
310.5425
21
78.16
0
LINE
8
bottom_outsideCutPath
10
310.5425
20
78.16
11
310.5425
21
83.16
0
LINE
8
bottom_outsideCutPath
10
310.5425
20
83.16
11
299.7575
21
83.16
0
LINE
8
bottom_outsideCutPath
10
299.7575
20
83.16
11
299.7575
21
78.16
0
LINE
8
bottom_outsideCutPath
10
299.7575
20
78.16
11
289.2925
21
78.16
0
LINE
8
bottom_outsideCutPath
10
289.2925
20
78.16
11
289.2925
21
83.16
0
LINE
8
bottom_outsideCutPath
10
289.2925
20
83.16
11
278.5075
21
83.16
0
LINE
8
bottom_outsideCutPath
10
278.5075
20
83.16
11
278.5075
21
78.16
0
LINE
8
bottom_outsideCutPath
10
278.5075
20
78.16
11
268.0425
21
78.16
0
LINE
8
bottom_outsideCutPath
10
268.0425
20
78.16
11
268.0425
21
83.16
0
LINE
8
bottom_outsideCutPath
10
268.0425
20
83.16
11
257.2575
21
83.16
0
LINE
8
bottom_outsideCutPath
10
257.2575
20
83.16
11
257.2575
21
78.16
0
LINE
8
bottom_outsideCutPath
10
257.2575
20
78.16
11
251.32
21
78.16
0
LINE
8
bottom_outsideCutPath
10
251.32
20
78.16
11
251.32
21
69.7225
0
LINE
8
bottom_outsideCutPath
10
251.32
20
69.7225
11
246.32
21
69.7225
0
LINE
8
bottom_outsideCutPath
10
246.32
20
69.7225
11
246.32
21
58.9375
0
LINE
8
bottom_outsideCutPath
10
246.32
20
58.9375
11
251.32
21
58.9375
0
LINE
8
bottom_outsideCutPath
10
251.32
20
58.9375
11
251.32
21
48.4725
0
LINE
8
bottom_outsideCutPath
10
251.32
20
48.4725
11
246.32
21
48.4725
0
LINE
8
bottom_outsideCutPath
10
246.32
20
48.4725
11
246.32
21
37.6875
0
LINE
8
bottom_outsideCutPath
10
246.32
20
37.6875
11
251.32
21
37.6875
0
LINE
8
bottom_outsideCutPath
10
251.32
20
37.6875
11
251.32
21
27.2225
0
LINE
8
bottom_outsideCutPath
10
251.32
20
27.2225
11
246.32
21
27.2225
0
LINE
8
bottom_outsideCutPath
10
246.32
20
27.2225
11
246.32
21
16.4375
0
LINE
8
bottom_outsideCutPath
10
246.32
20
16.4375
11
251.32
21
16.4375
0
LINE
8
bottom_outsideCutPath
10
251.32
20
16.4375
11
251.32
21
8
0
LINE
8
bottom_outsideCutPath
10
251.32
20
8
11
257.2575
21
8
0
LINE
8
bottom_outsideCutPath
10
257.2575
20
8
11
257.2575
21
3
0
LINE
8
bottom_outsideCutPath
10
257.2575
20
3
11
268.0425
21
3
0
LINE
8
bottom_outsideCutPath
10
268.0425
20
3
11
268.0425
21
8
0
ENDSEC
0
EOF