0
SECTION
2
HEADER
9
$INSUNITS
70
4
0
ENDSEC
0
SECTION
2
TABLES
0
TABLE
2
LTYPE
0
LTYPE
72
65
70
64
2
CONTINUOUS
3
______
73
0
40
0
0
ENDTAB
0
TABLE
2
LAYER
0
ENDTAB
0
ENDSEC
0
SECTION
2
ENTITIES
0
LINE
8
front_outsideCutPath
10
0
20
78
11
0
21
56.4375
0
LINE
8
front_outsideCutPath
10
0
20
56.4375
11
4.95
21
56.4375
0
LINE
8
front_outsideCutPath
10
4.95
20
56.4375
11
4.95
21
24.5625
0
LINE
8
front_outsideCutPath
10
4.95
20
24.5625
11
0
21
24.5625
0
LINE
8
front_outsideCutPath
10
0
20
24.5625
11
0
21
3
0
LINE
8
front_outsideCutPath
10
0
20
3
11
47.1875
21
3
0
LINE
8
front_outsideCutPath
10
47.1875
20
3
11
47.1875
21
7.95
0
LINE
8
front_outsideCutPath
10
47.1875
20
7.95
11
79.0625
21
7.95
0
LINE
8
front_outsideCutPath
10
79.0625
20
7.95
11
79.0625
21
3
0
LINE
8
front_outsideCutPath
10
79.0625
20
3
11
110.9375
21
3
0
LINE
8
front_outsideCutPath
10
110.9375
20
3
11
110.9375
21
7.95
0
LINE
8
front_outsideCutPath
10
110.9375
20
7.95
11
142.8125
21
7.95
0
LINE
8
front_outsideCutPath
10
142.8125
20
7.95
11
142.8125
21
3
0
LINE
8
front_outsideCutPath
10
142.8125
20
3
11
174.6875
21
3
0
LINE
8
front_outsideCutPath
10
174.6875
20
3
11
190
21
3
0
LINE
8
front_outsideCutPath
10
190
20
3
11
190
21
24.5625
0
LINE
8
front_outsideCutPath
10
190
20
24.5625
11
185.05
21
24.5625
0
LINE
8
front_outsideCutPath
10
185.05
20
24.5625
11
185.05
21
56.4375
0
LINE
8
front_outsideCutPath
10
185.05
20
56.4375
11
190
21
56.4375
0
LINE
8
front_outsideCutPath
10
190
20
56.4375
11
190
21
78
0
LINE
8
front_outsideCutPath
10
190
20
78
11
142.8125
21
78
0
LINE
8
front_outsideCutPath
10
142.8125
20
78
11
142.8125
21
73.05
0
LINE
8
front_outsideCutPath
10
142.8125
20
73.05
11
110.9375
21
73.05
0
LINE
8
front_outsideCutPath
10
110.9375
20
73.05
11
110.9375
21
78
0
LINE
8
front_outsideCutPath
10
110.9375
20
78
11
79.0625
21
78
0
LINE
8
front_outsideCutPath
10
79.0625
20
78
11
79.0625
21
73.05
0
LINE
8
front_outsideCutPath
10
79.0625
20
73.05
11
47.1875
21
73.05
0
LINE
8
front_outsideCutPath
10
47.1875
20
73.05
11
47.1875
21
78
0
LINE
8
front_outsideCutPath
10
47.1875
20
78
11
15.3125
21
78
0
LINE
8
front_outsideCutPath
10
15.3125
20
78
11
0
21
78
0
LINE
8
left_outsideCutPath
10
197.95
20
78
11
197.95
21
56.4375
0
LINE
8
left_outsideCutPath
10
197.95
20
56.4375
11
193
21
56.4375
0
LINE
8
left_outsideCutPath
10
193
20
56.4375
11
193
21
24.5625
0
LINE
8
left_outsideCutPath
10
193
20
24.5625
11
197.95
21
24.5625
0
LINE
8
left_outsideCutPath
10
197.95
20
24.5625
11
197.95
21
3
0
LINE
8
left_outsideCutPath
10
197.95
20
3
11
232.0625
21
3
0
LINE
8
left_outsideCutPath
10
232.0625
20
3
11
232.0625
21
7.95
0
LINE
8
left_outsideCutPath
10
232.0625
20
7.95
11
263.9375
21
7.95
0
LINE
8
left_outsideCutPath
10
263.9375
20
7.95
11
263.9375
21
3
0
LINE
8
left_outsideCutPath
10
263.9375
20
3
11
295.8125
21
3
0
LINE
8
left_outsideCutPath
10
295.8125
20
3
11
298.05
21
3
0
LINE
8
left_outsideCutPath
10
298.05
20
3
11
298.05
21
24.5625
0
LINE
8
left_outsideCutPath
10
298.05
20
24.5625
11
303
21
24.5625
0
LINE
8
left_outsideCutPath
10
303
20
24.5625
11
303
21
56.4375
0
LINE
8
left_outsideCutPath
10
303
20
56.4375
11
298.05
21
56.4375
0
LINE
8
left_outsideCutPath
10
298.05
20
56.4375
11
298.05
21
78
0
LINE
8
left_outsideCutPath
10
298.05
20
78
11
263.9375
21
78
0
LINE
8
left_outsideCutPath
10
263.9375
20
78
11
263.9375
21
73.05
0
LINE
8
left_outsideCutPath
10
263.9375
20
73.05
11
232.0625
21
73.05
0
LINE
8
left_outsideCutPath
10
232.0625
20
73.05
11
232.0625
21
78
0
LINE
8
left_outsideCutPath
10
232.0625
20
78
11
200.1875
21
78
0
LINE
8
left_outsideCutPath
10
200.1875
20
78
11
197.95
21
78
0
LINE
8
top_outsideCutPath
10
310.95
20
108.05
11
310.95
21
73.9375
0
LINE
8
top_outsideCutPath
10
310.95
20
73.9375
11
306
21
73.9375
0
LINE
8
top_outsideCutPath
10
306
20
73.9375
11
306
21
42.0625
0
LINE
8
top_outsideCutPath
10
306
20
42.0625
11
310.95
21
42.0625
0
LINE
8
top_outsideCutPath
10
310.95
20
42.0625
11
310.95
21
10.1875
0
LINE
8
top_outsideCutPath
10
310.95
20
10.1875
11
310.95
21
7.95
0
LINE
8
top_outsideCutPath
10
310.95
20
7.95
11
353.1875
21
7.95
0
LINE
8
top_outsideCutPath
10
353.1875
20
7.95
11
353.1875
21
3
0
LINE
8
top_outsideCutPath
10
353.1875
20
3
11
385.0625
21
3
0
LINE
8
top_outsideCutPath
10
385.0625
20
3
11
385.0625
21
7.95
0
LINE
8
top_outsideCutPath
10
385.0625
20
7.95
11
416.9375
21
7.95
0
LINE
8
top_outsideCutPath
10
416.9375
20
7.95
11
416.9375
21
3
0
LINE
8
top_outsideCutPath
10
416.9375
20
3
11
448.8125
21
3
0
LINE
8
top_outsideCutPath
10
448.8125
20
3
11
448.8125
21
7.95
0
LINE
8
top_outsideCutPath
10
448.8125
20
7.95
11
480.6875
21
7.95
0
LINE
8
top_outsideCutPath
10
480.6875
20
7.95
11
491.05
21
7.95
0
LINE
8
top_outsideCutPath
10
491.05
20
7.95
11
491.05
21
42.0625
0
LINE
8
top_outsideCutPath
10
491.05
20
42.0625
11
496
21
42.0625
0
LINE
8
top_outsideCutPath
10
496
20
42.0625
11
496
21
73.9375
0
LINE
8
top_outsideCutPath
10
496
20
73.9375
11
491.05
21
73.9375
0
LINE
8
top_outsideCutPath
10
491.05
20
73.9375
11
491.05
21
105.8125
0
LINE
8
top_outsideCutPath
10
491.05
20
105.8125
11
491.05
21
108.05
0
LINE
8
top_outsideCutPath
10
491.05
20
108.05
11
448.8125
21
108.05
0
LINE
8
top_outsideCutPath
10
448.8125
20
108.05
11
448.8125
21
113
0
LINE
8
top_outsideCutPath
10
448.8125
20
113
11
416.9375
21
113
0
LINE
8
top_outsideCutPath
10
416.9375
20
113
11
416.9375
21
108.05
0
LINE
8
top_outsideCutPath
10
416.9375
20
108.05
11
385.0625
21
108.05
0
LINE
8
top_outsideCutPath
10
385.0625
20
108.05
11
385.0625
21
113
0
LINE
8
top_outsideCutPath
10
385.0625
20
113
11
353.1875
21
113
0
LINE
8
top_outsideCutPath
10
353.1875
20
113
11
353.1875
21
108.05
0
LINE
8
top_outsideCutPath
10
353.1875
20
108.05
11
321.3125
21
108.05
0
LINE
8
top_outsideCutPath
10
321.3125
20
108.05
11
310.95
21
108.05
0
LINE
8
back_outsideCutPath
10
0
20
156
11
0
21
134.4375
0
LINE
8
back_outsideCutPath
10
0
20
134.4375
11
4.95
21
134.4375
0
LINE
8
back_outsideCutPath
10
4.95
20
134.4375
11
4.95
21
102.5625
0
LINE
8
back_outsideCutPath
10
4.95
20
102.5625
11
0
21
102.5625
0
LINE
8
back_outsideCutPath
10
0
20
102.5625
11
0
21
81
0
LINE
8
back_outsideCutPath
10
0
20
81
11
47.1875
21
81
0
LINE
8
back_outsideCutPath
10
47.1875
20
81
11
47.1875
21
85.95
0
LINE
8
back_outsideCutPath
10
47.1875
20
85.95
11
79.0625
21
85.95
0
LINE
8
back_outsideCutPath
10
79.0625
20
85.95
11
79.0625
21
81
0
LINE
8
back_outsideCutPath
10
79.0625
20
81
11
110.9375
21
81
0
LINE
8
back_outsideCutPath
10
110.9375
20
81
11
110.9375
21
85.95
0
LINE
8
back_outsideCutPath
10
110.9375
20
85.95
11
142.8125
21
85.95
0
LINE
8
back_outsideCutPath
10
142.8125
20
85.95
11
142.8125
21
81
0
LINE
8
back_outsideCutPath
10
142.8125
20
81
11
174.6875
21
81
0
LINE
8
back_outsideCutPath
10
174.6875
20
81
11
190
21
81
0
LINE
8
back_outsideCutPath
10
190
20
81
11
190
21
102.5625
0
LINE
8
back_outsideCutPath
10
190
20
102.5625
11
185.05
21
102.5625
0
LINE
8
back_outsideCutPath
10
185.05
20
102.5625
11
185.05
21
134.4375
0
LINE
8
back_outsideCutPath
10
185.05
20
134.4375
11
190
21
134.4375
0
LINE
8
back_outsideCutPath
10
190
20
134.4375
11
190
21
156
0
LINE
8
back_outsideCutPath
10
190
20
156
11
142.8125
21
156
0
LINE
8
back_outsideCutPath
10
142.8125
20
156
11
142.8125
21
151.05
0
LINE
8
back_outsideCutPath
10
142.8125
20
151.05
11
110.9375
21
151.05
0
LINE
8
back_outsideCutPath
10
110.9375
20
151.05
11
110.9375
21
156
0
LINE
8
back_outsideCutPath
10
110.9375
20
156
11
79.0625
21
156
0
LINE
8
back_outsideCutPath
10
79.0625
20
156
11
79.0625
21
151.05
0
LINE
8
back_outsideCutPath
10
79.0625
20
151.05
11
47.1875
21
151.05
0
LINE
8
back_outsideCutPath
10
47.1875
20
151.05
11
47.1875
21
156
0
LINE
8
back_outsideCutPath
10
47.1875
20
156
11
15.3125
21
156
0
LINE
8
back_outsideCutPath
10
15.3125
20
156
11
0
21
156
0
LINE
8
right_outsideCutPath
10
197.95
20
156
11
197.95
21
134.4375
0
LINE
8
right_outsideCutPath
10
197.95
20
134.4375
11
193
21
134.4375
0
LINE
8
right_outsideCutPath
10
193
20
134.4375
11
193
21
102.5625
0
LINE
8
right_outsideCutPath
10
193
20
102.5625
11
197.95
21
102.5625
0
LINE
8
right_outsideCutPath
10
197.95
20
102.5625
11
197.95
21
81
0
LINE
8
right_outsideCutPath
10
197.95
20
81
11
232.0625
21
81
0
LINE
8
right_outsideCutPath
10
232.0625
20
81
11
232.0625
21
85.95
0
LINE
8
right_outsideCutPath
10
232.0625
20
85.95
11
263.9375
21
85.95
0
LINE
8
right_outsideCutPath
10
263.9375
20
85.95
11
263.9375
21
81
0
LINE
8
right_outsideCutPath
10
263.9375
20
81
11
295.8125
21
81
0
LINE
8
right_outsideCutPath
10
295.8125
20
81
11
298.05
21
81
0
LINE
8
right_outsideCutPath
10
298.05
20
81
11
298.05
21
102.5625
0
LINE
8
right_outsideCutPath
10
298.05
20
102.5625
11
303
21
102.5625
0
LINE
8
right_outsideCutPath
10
303
20
102.5625
11
303
21
134.4375
0
LINE
8
right_outsideCutPath
10
303
20
134.4375
11
298.05
21
134.4375
0
LINE
8
right_outsideCutPath
10
298.05
20
134.4375
11
298.05
21
156
0
LINE
8
right_outsideCutPath
10
298.05
20
156
11
263.9375
21
156
0
LINE
8
right_outsideCutPath
10
263.9375
20
156
11
263.9375
21
151.05
0
LINE
8
right_outsideCutPath
10
263.9375
20
151.05
11
232.0625
21
151.05
0
LINE
8
right_outsideCutPath
10
232.0625
20
151.05
11
232.0625
21
156
0
LINE
8
right_outsideCutPath
10
232.0625
20
156
11
200.1875
21
156
0
LINE
8
right_outsideCutPath
10
200.1875
20
156
11
197.95
21
156
0
LINE
8
bottom_outsideCutPath
10
310.95
20
221.05
11
310.95
21
186.9375
0
LINE
8
bottom_outsideCutPath
10
310.95
20
186.9375
11
306
21
186.9375
0
LINE
8
bottom_outsideCutPath
10
306
20
186.9375
11
306
21
155.0625
0
LINE
8
bottom_outsideCutPath
10
306
20
155.0625
11
310.95
21
155.0625
0
LINE
8
bottom_outsideCutPath
10
310.95
20
155.0625
11
310.95
21
123.1875
0
LINE
8
bottom_outsideCutPath
10
310.95
20
123.1875
11
310.95
21
120.95
0
LINE
8
bottom_outsideCutPath
10
310.95
20
120.95
11
353.1875
21
120.95
0
LINE
8
bottom_outsideCutPath
10
353.1875
20
120.95
11
353.1875
21
116
0
LINE
8
bottom_outsideCutPath
10
353.1875
20
116
11
385.0625
21
116
0
LINE
8
bottom_outsideCutPath
10
385.0625
20
116
11
385.0625
21
120.95
0
LINE
8
bottom_outsideCutPath
10
385.0625
20
120.95
11
416.9375
21
120.95
0
LINE
8
bottom_outsideCutPath
10
416.9375
20
120.95
11
416.9375
21
116
0
LINE
8
bottom_outsideCutPath
10
416.9375
20
116
11
448.8125
21
116
0
LINE
8
bottom_outsideCutPath
10
448.8125
20
116
11
448.8125
21
120.95
0
LINE
8
bottom_outsideCutPath
10
448.8125
20
120.95
11
480.6875
21
120.95
0
LINE
8
bottom_outsideCutPath
10
480.6875
20
120.95
11
491.05
21
120.95
0
LINE
8
bottom_outsideCutPath
10
491.05
20
120.95
11
491.05
21
155.0625
0
LINE
8
bottom_outsideCutPath
10
491.05
20
155.0625
11
496
21
155.0625
0
LINE
8
bottom_outsideCutPath
10
496
20
155.0625
11
496
21
186.9375
0
LINE
8
bottom_outsideCutPath
10
496
20
186.9375
11
491.05
21
186.9375
0
LINE
8
bottom_outsideCutPath
10
491.05
20
186.9375
11
491.05
21
218.8125
0
LINE
8
bottom_outsideCutPath
10
491.05
20
218.8125
11
491.05
21
221.05
0
LINE
8
bottom_outsideCutPath
10
491.05
20
221.05
11
448.8125
21
221.05
0
LINE
8
bottom_outsideCutPath
10
448.8125
20
221.05
11
448.8125
21
226
0
LINE
8
bottom_outsideCutPath
10
448.8125
20
226
11
416.9375
21
226
0
LINE
8
bottom_outsideCutPath
10
416.9375
20
226
11
416.9375
21
221.05
0
LINE
8
bottom_outsideCutPath
10
416.9375
20
221.05
11
385.0625
21
221.05
0
LINE
8
bottom_outsideCutPath
10
385.0625
20
221.05
11
385.0625
21
226
0
LINE
8
bottom_outsideCutPath
10
385.0625
20
226
11
353.1875
21
226
0
LINE
8
bottom_outsideCutPath
10
353.1875
20
226
11
353.1875
21
221.05
0
LINE
8
bottom_outsideCutPath
10
353.1875
20
221.05
11
321.3125
21
221.05
0
LINE
8
bottom_outsideCutPath
10
321.3125
20
221.05
11
310.95
21
221.05
0
ENDSEC
0
EOF